<svg xmlns="http://www.w3.org/2000/svg" xmlns:xlink="http://www.w3.org/1999/xlink" width="700" zoomAndPan="magnify" viewBox="0 0 525 599.999999" height="800" preserveAspectRatio="xMidYMid meet" version="1.0"><path fill="#022c43" d="M 436.085938 5.113281 L 423.269531 7.359375 L 22.851562 77.613281 L -0.378906 81.6875 L -0.378906 223.832031 L 9.796875 232.257812 L 78.527344 289.1875 L 88.464844 297.414062 L 101.195312 295.226562 L 133.972656 289.578125 L 133.972656 522.46875 L 144.039062 530.878906 L 212.765625 588.355469 L 222.660156 596.644531 L 367.105469 572.558594 L 390.5625 568.640625 L 390.5625 245.34375 L 501.613281 226.203125 L 524.914062 222.1875 L 524.914062 79.160156 L 514.808594 70.75 L 446.082031 13.453125 Z M 436.085938 5.113281 " fill-opacity="1" fill-rule="nonzero"/><path fill="#fed600" d="M 428.113281 35.023438 L 496.839844 92.316406 L 496.839844 198.523438 L 362.488281 221.683594 L 362.488281 544.851562 L 230.761719 566.816406 L 162.035156 509.335938 L 162.035156 256.242188 L 96.421875 267.558594 L 27.695312 210.617188 L 27.695312 105.28125 Z M 428.113281 35.023438 " fill-opacity="1" fill-rule="evenodd"/><path fill="#ffffff" d="M 27.710938 105.265625 L 428.128906 35.007812 L 428.128906 141.089844 L 293.773438 164.414062 L 293.773438 487.191406 L 162.046875 509.324219 L 162.046875 187.289062 L 27.710938 210.601562 Z M 27.710938 105.265625 " fill-opacity="1" fill-rule="nonzero"/></svg>